<?xml version="1.0" standalone="no"?>
<!DOCTYPE svg PUBLIC "-//W3C//DTD SVG 20010904//EN"
 "http://www.w3.org/TR/2001/REC-SVG-20010904/DTD/svg10.dtd">
<svg version="1.0" xmlns="http://www.w3.org/2000/svg"
 width="1350.000000pt" height="1350.000000pt" viewBox="0 0 1350.000000 1350.000000"
 preserveAspectRatio="xMidYMid meet">

<g transform="translate(0.000000,1350.000000) scale(0.100000,-0.100000)"
fill="#000000" stroke="none">
<path d="M7555 13465 c-148 -11 -237 -20 -385 -39 -38 -5 -85 -15 -195 -41
-38 -9 -86 -18 -105 -21 -19 -3 -44 -9 -55 -14 -11 -4 -54 -18 -95 -29 -41
-12 -104 -33 -140 -46 -36 -14 -70 -25 -76 -25 -16 0 -300 -120 -359 -153 -11
-5 -47 -25 -80 -42 -91 -48 -157 -86 -187 -106 -14 -11 -28 -19 -31 -19 -5 0
-82 -49 -142 -90 -213 -147 -341 -254 -545 -459 -197 -197 -227 -234 -427
-511 -28 -39 -143 -220 -143 -226 0 -2 -12 -23 -27 -47 -14 -23 -48 -86 -75
-139 -27 -54 -52 -99 -57 -102 -12 -8 -177 39 -196 55 -5 5 -17 9 -28 9 -10 0
-61 20 -114 45 -283 136 -493 310 -688 573 -48 64 -78 82 -141 82 -108 0 -178
-116 -128 -213 62 -118 320 -392 479 -507 109 -79 132 -94 213 -137 34 -18 70
-37 80 -43 40 -22 170 -78 212 -90 25 -8 50 -17 55 -20 6 -4 38 -15 73 -25 65
-19 69 -26 51 -72 -24 -59 -28 -69 -40 -117 -7 -26 -22 -60 -34 -75 -12 -14
-29 -48 -38 -76 -9 -27 -32 -95 -52 -150 -20 -55 -46 -127 -57 -160 -11 -33
-24 -71 -30 -85 -20 -48 -27 -65 -44 -120 -9 -30 -20 -59 -24 -65 -3 -5 -12
-30 -19 -55 -7 -25 -24 -72 -36 -105 -13 -33 -29 -78 -36 -100 -13 -43 -20
-64 -37 -107 -6 -15 -23 -62 -37 -105 -14 -43 -30 -87 -34 -98 -5 -11 -18 -47
-29 -80 -11 -33 -37 -105 -57 -160 -20 -55 -47 -134 -61 -175 -14 -41 -32 -88
-39 -105 -7 -16 -20 -52 -28 -80 -15 -46 -76 -220 -90 -255 -8 -21 -64 -183
-87 -250 -10 -30 -23 -68 -30 -85 -18 -44 -26 -65 -39 -110 -7 -22 -23 -67
-36 -100 -12 -33 -29 -80 -36 -105 -7 -25 -16 -49 -19 -55 -4 -5 -15 -35 -24
-65 -10 -30 -22 -66 -28 -80 -17 -41 -25 -61 -52 -145 -15 -44 -31 -89 -36
-100 -5 -11 -16 -45 -26 -75 -9 -30 -20 -59 -24 -65 -3 -5 -12 -30 -19 -55 -7
-25 -24 -72 -36 -105 -13 -33 -29 -78 -35 -100 -11 -38 -17 -55 -40 -107 -12
-29 -66 -187 -87 -253 -8 -27 -21 -63 -28 -80 -14 -32 -65 -175 -95 -266 -10
-31 -27 -78 -38 -105 -11 -27 -27 -71 -35 -99 -9 -27 -32 -95 -52 -150 -20
-55 -48 -134 -61 -175 -14 -41 -31 -88 -38 -105 -7 -16 -18 -48 -25 -70 -7
-22 -23 -67 -35 -100 -13 -33 -29 -80 -37 -105 -7 -25 -16 -49 -20 -55 -4 -5
-16 -39 -27 -75 -17 -52 -78 -227 -109 -310 -33 -89 -76 -211 -82 -235 -4 -16
-17 -50 -27 -75 -11 -25 -26 -65 -33 -90 -7 -25 -17 -54 -21 -65 -10 -25 -14
-37 -57 -155 -19 -52 -41 -117 -49 -145 -9 -27 -23 -66 -31 -85 -23 -54 -30
-71 -46 -125 -9 -27 -32 -95 -52 -150 -20 -55 -45 -127 -56 -160 -11 -33 -24
-69 -28 -80 -16 -38 -38 -100 -50 -140 -7 -22 -17 -51 -23 -65 -20 -48 -26
-65 -33 -94 -3 -15 -14 -47 -24 -70 -10 -22 -23 -59 -30 -81 -7 -22 -22 -67
-35 -100 -13 -33 -29 -78 -35 -100 -12 -40 -17 -52 -41 -110 -7 -16 -16 -43
-20 -60 -7 -27 -78 -228 -99 -280 -5 -11 -16 -45 -26 -75 -10 -30 -26 -73 -35
-95 -9 -22 -27 -71 -39 -110 -13 -38 -29 -83 -36 -100 -7 -16 -20 -52 -28 -80
-14 -42 -71 -206 -90 -255 -3 -8 -13 -37 -22 -65 -10 -27 -22 -61 -27 -75 -16
-37 -24 -61 -37 -105 -7 -22 -19 -58 -28 -80 -8 -22 -19 -49 -23 -60 -4 -11
-15 -42 -24 -70 -8 -27 -32 -95 -52 -150 -19 -55 -45 -127 -56 -160 -19 -60
-26 -78 -46 -125 -5 -14 -22 -61 -37 -105 -14 -44 -29 -87 -32 -95 -17 -42
-55 -151 -69 -195 -9 -27 -20 -59 -24 -70 -4 -11 -15 -38 -23 -60 -20 -52 -61
-167 -98 -277 l-29 -87 19 -44 c20 -46 62 -85 118 -106 36 -15 733 -9 958 8
318 23 440 36 580 61 28 5 88 14 135 20 47 6 108 18 136 26 28 8 60 14 72 14
12 0 31 4 44 9 13 5 52 14 88 20 56 10 124 26 300 72 19 5 64 17 100 28 36 11
92 27 125 37 33 9 65 20 70 24 6 4 33 13 60 19 28 7 71 21 96 31 25 11 68 26
95 35 41 14 109 39 199 75 11 5 46 20 77 34 31 14 61 26 66 26 6 0 27 9 49 19
21 11 74 36 118 56 44 20 150 72 235 115 139 69 218 112 426 232 102 59 352
226 533 355 14 10 61 46 105 81 45 34 103 79 130 100 307 235 822 752 1066
1068 196 255 341 458 431 604 25 41 65 104 88 140 22 36 44 72 48 80 4 8 18
33 32 55 13 22 37 63 52 90 14 28 44 82 65 120 46 86 52 152 16 202 -64 90
-206 81 -255 -16 -44 -85 -106 -197 -153 -274 -30 -48 -54 -90 -54 -93 0 -3
-35 -58 -77 -122 -43 -64 -80 -121 -82 -127 -14 -34 -291 -409 -385 -521 -28
-33 -69 -83 -91 -109 -22 -27 -51 -61 -65 -75 -14 -15 -45 -49 -69 -76 -337
-376 -783 -761 -1206 -1044 -60 -40 -122 -82 -138 -92 -29 -20 -220 -134 -297
-177 -187 -105 -530 -273 -630 -310 -19 -7 -51 -21 -70 -31 -19 -10 -46 -21
-60 -25 -14 -4 -43 -16 -65 -25 -22 -10 -71 -30 -110 -43 -38 -14 -95 -35
-125 -46 -30 -12 -65 -21 -77 -21 -12 0 -24 -4 -27 -9 -3 -4 -49 -20 -103 -36
-54 -15 -107 -31 -118 -35 -23 -9 -66 -21 -180 -51 -90 -23 -115 -30 -230 -54
-44 -9 -98 -21 -120 -26 -64 -15 -155 -31 -225 -39 -36 -4 -108 -15 -160 -24
-185 -32 -490 -53 -909 -62 -202 -5 -265 -4 -271 6 -8 13 -3 29 42 152 15 43
35 99 44 125 8 27 19 57 24 68 5 11 18 47 29 80 28 86 99 286 110 310 5 11 16
43 24 70 25 77 77 228 88 250 5 11 18 48 29 83 11 34 26 77 34 95 7 18 26 70
42 117 15 47 31 89 36 94 4 6 8 17 8 25 0 13 25 87 59 176 16 40 44 121 63
180 11 33 23 69 28 80 4 11 12 31 17 45 6 14 32 88 58 165 26 77 53 154 60
170 31 75 35 87 35 100 0 8 11 38 24 67 13 29 31 76 39 103 9 28 36 109 62
180 26 72 55 157 66 190 11 33 24 69 29 80 5 11 16 43 25 70 8 28 20 60 25 73
16 37 27 65 39 107 7 22 19 58 28 80 28 74 31 80 44 125 7 25 16 50 20 55 3 6
19 48 33 95 15 47 33 99 40 115 8 17 19 48 26 70 12 41 25 77 41 107 5 10 9
23 9 30 0 11 27 90 59 173 13 32 42 115 64 180 21 64 31 91 47 128 5 12 21 60
36 107 15 47 31 90 35 95 4 6 12 30 19 55 6 25 18 59 25 75 8 17 25 64 39 105
13 41 40 118 59 170 56 151 95 265 128 365 11 33 24 69 29 80 5 11 18 48 29
82 11 34 26 77 34 95 8 18 19 51 26 73 7 22 22 67 35 100 13 33 29 78 35 100
12 40 17 52 41 110 7 17 16 44 21 60 4 17 23 73 42 125 19 52 37 103 41 113 3
9 9 25 12 35 4 9 22 60 41 112 19 52 37 104 40 115 3 11 20 61 38 110 46 130
64 179 97 275 16 47 33 94 38 105 5 11 16 43 25 70 8 28 20 60 25 73 17 38 27
65 43 117 18 58 83 240 95 270 5 11 15 38 21 60 7 22 22 67 35 100 13 33 29
78 35 100 7 22 16 49 21 60 5 11 25 67 45 125 20 58 40 114 44 125 5 11 14 38
21 60 7 22 18 54 25 70 14 34 58 160 87 250 11 33 23 69 28 80 5 11 16 43 25
70 19 56 33 92 46 117 5 10 9 25 9 33 0 8 4 23 9 33 6 9 18 42 27 72 9 30 20
60 24 65 4 6 15 37 25 70 30 100 55 111 55 25 0 -27 4 -80 10 -117 5 -38 14
-106 20 -153 10 -78 18 -117 49 -236 6 -23 11 -52 11 -64 0 -13 9 -49 20 -80
11 -31 29 -87 39 -126 18 -66 70 -216 90 -259 5 -11 15 -36 22 -55 17 -47 159
-339 202 -415 228 -407 624 -853 1002 -1130 22 -16 42 -32 45 -35 7 -8 183
-124 195 -129 5 -2 22 -12 37 -22 77 -54 369 -205 483 -249 33 -13 69 -29 80
-37 11 -7 27 -13 36 -13 14 0 61 -16 144 -50 11 -5 47 -16 80 -25 33 -9 68
-21 77 -26 10 -5 27 -9 37 -9 11 0 30 -4 43 -9 13 -5 61 -17 108 -27 47 -9 89
-21 95 -26 5 -4 24 -8 43 -8 19 0 63 -4 98 -10 35 -6 92 -14 127 -20 34 -5
152 -17 262 -26 236 -19 393 -10 795 47 104 14 105 14 200 38 47 12 105 27
130 33 69 16 247 72 285 88 11 5 41 16 67 24 26 9 69 25 95 37 26 11 57 25 68
29 46 18 335 163 397 199 71 42 295 190 340 225 84 66 112 89 206 170 172 148
345 328 481 501 34 44 69 88 76 97 7 9 18 25 24 36 6 11 17 26 24 34 14 13
141 210 183 283 13 22 49 91 81 153 32 61 62 112 67 112 5 0 6 -92 2 -232 -3
-128 -10 -399 -15 -603 -9 -379 -25 -663 -41 -771 -6 -34 -10 -95 -10 -135 0
-100 -32 -435 -52 -549 -5 -30 -14 -98 -19 -150 -14 -153 -19 -193 -29 -230
-5 -19 -16 -84 -25 -145 -16 -106 -28 -171 -45 -245 -5 -19 -14 -62 -20 -95
-18 -98 -42 -199 -51 -217 -5 -10 -9 -27 -9 -38 0 -23 -32 -147 -55 -213 -8
-23 -15 -50 -15 -59 0 -9 -14 -56 -30 -105 -17 -48 -35 -104 -40 -123 -10 -40
-66 -204 -80 -237 -19 -43 -28 -68 -46 -118 -10 -27 -21 -54 -24 -60 -4 -5
-16 -35 -28 -65 -38 -105 -213 -469 -306 -638 -28 -51 -60 -110 -71 -130 -11
-21 -30 -51 -42 -69 -13 -17 -23 -34 -23 -37 0 -4 -17 -32 -37 -64 -20 -31
-45 -70 -54 -87 -81 -135 -359 -536 -488 -705 -15 -19 -56 -73 -91 -120 -36
-47 -67 -87 -70 -90 -3 -3 -16 -19 -27 -35 -20 -29 -29 -32 -115 -44 -97 -14
-100 -14 -238 -56 -141 -43 -282 -111 -388 -185 -35 -25 -75 -52 -88 -60 -67
-41 -344 -352 -344 -385 0 -4 -10 -21 -22 -38 -13 -18 -31 -49 -40 -69 -21
-46 -34 -48 -56 -7 -43 79 -98 168 -126 204 -108 140 -262 285 -401 377 -148
97 -382 187 -566 217 -93 15 -396 13 -499 -3 -99 -16 -272 -61 -314 -82 -16
-8 -33 -14 -39 -14 -17 0 -211 -94 -243 -117 -17 -13 -34 -23 -39 -23 -13 0
-137 -91 -210 -154 -58 -50 -113 -108 -220 -229 -36 -41 -139 -217 -170 -292
-9 -22 -20 -49 -25 -60 -13 -30 -25 -73 -65 -235 -10 -41 -15 -95 -13 -145 l3
-80 125 -3 c173 -4 170 -5 170 68 0 53 38 233 60 285 144 338 350 536 732 704
44 19 96 35 158 47 14 3 34 9 45 14 71 29 395 42 507 20 90 -18 228 -60 278
-85 14 -7 39 -19 55 -26 77 -34 229 -145 309 -225 148 -148 269 -353 306 -519
5 -22 15 -67 24 -100 8 -34 18 -96 22 -138 l7 -77 156 2 156 3 6 60 c18 162
54 321 80 349 5 6 9 16 9 24 0 23 68 152 122 230 88 128 228 260 358 339 81
49 194 103 240 115 19 5 51 14 70 19 190 55 438 54 633 0 20 -6 52 -15 70 -20
17 -5 68 -26 112 -46 295 -140 530 -400 631 -700 38 -114 43 -138 53 -252 5
-56 12 -106 16 -112 4 -7 58 -11 152 -11 l146 0 -7 93 c-8 108 -33 264 -46
289 -6 10 -10 26 -10 36 0 10 -4 22 -8 28 -5 5 -14 27 -20 50 -14 49 -80 190
-119 255 -113 187 -246 330 -421 456 -73 53 -235 141 -319 174 -13 5 -33 13
-45 18 -13 6 -52 17 -88 26 -36 9 -73 21 -82 26 -10 5 -26 9 -36 9 -44 0 -37
18 48 130 76 101 112 150 130 176 8 12 51 73 95 135 91 129 335 505 335 517 0
5 5 13 12 20 7 7 27 38 44 70 91 161 132 235 176 320 26 51 52 100 57 110 6 9
25 51 44 92 20 41 51 109 71 151 20 42 36 79 36 83 0 3 16 40 35 82 19 41 35
80 35 85 0 5 9 28 19 52 11 23 27 65 37 92 9 28 20 55 24 60 4 6 17 44 29 85
13 41 29 89 36 105 7 17 18 50 25 75 7 25 22 72 33 104 11 33 28 91 38 130 10
39 21 82 24 96 4 14 10 34 15 45 5 11 18 63 30 115 12 52 26 113 31 135 6 22
14 65 19 95 9 52 20 101 40 180 5 19 14 71 20 115 7 44 21 125 32 180 23 113
23 113 38 255 5 58 15 134 20 170 26 179 31 226 41 355 6 77 15 190 20 250 28
327 39 524 50 880 57 1838 62 2607 20 2905 -22 154 -46 282 -61 330 -4 14 -13
52 -20 85 -13 62 -35 144 -49 180 -20 50 -32 97 -27 102 3 3 81 14 173 24 93
11 188 23 213 28 138 27 303 83 437 147 39 19 74 34 77 34 3 0 30 16 60 35 30
19 57 35 60 35 9 0 167 110 221 154 84 69 194 177 264 261 75 89 171 225 189
268 41 97 -29 207 -133 207 -61 0 -99 -28 -157 -113 -48 -71 -42 -62 -110
-147 -205 -254 -529 -469 -828 -550 -25 -7 -56 -16 -70 -21 -53 -18 -191 -38
-342 -50 -179 -13 -176 -14 -210 60 -32 72 -103 211 -136 266 -9 17 -37 64
-62 105 -119 200 -324 461 -516 656 -127 129 -221 213 -384 341 -50 40 -193
143 -197 143 -3 0 -28 16 -54 35 -27 19 -52 35 -55 35 -3 0 -18 8 -32 19 -101
71 -491 255 -650 307 -26 8 -56 19 -67 24 -17 8 -125 40 -190 57 -11 2 -27 7
-35 11 -37 14 -300 70 -365 78 -22 2 -71 9 -110 14 -66 10 -469 41 -490 39 -5
-1 -86 -7 -180 -14z m614 -320 c134 -17 237 -34 266 -45 11 -4 49 -13 85 -19
58 -10 113 -25 275 -75 67 -20 169 -58 227 -85 26 -11 50 -21 54 -21 18 0 290
-140 394 -203 109 -65 283 -183 312 -209 7 -7 31 -26 53 -42 22 -17 42 -32 45
-35 3 -4 32 -28 65 -56 73 -60 269 -255 352 -350 34 -38 97 -119 141 -180 45
-60 89 -121 99 -135 16 -21 50 -75 122 -190 8 -14 29 -50 45 -80 16 -30 35
-66 42 -80 7 -13 10 -28 6 -32 -4 -4 -137 -9 -297 -12 -294 -4 -316 -6 -530
-45 -120 -22 -174 -36 -207 -52 -10 -5 -25 -9 -35 -9 -28 0 -113 -30 -308
-108 -122 -50 -305 -143 -377 -193 -14 -11 -29 -19 -33 -19 -10 0 -202 -138
-290 -208 -151 -121 -345 -322 -466 -482 -180 -240 -280 -423 -415 -765 -15
-38 -29 -72 -31 -74 -5 -8 -33 22 -33 36 0 14 -20 67 -41 105 -5 10 -9 22 -9
28 0 26 -141 311 -195 396 -21 32 -47 74 -57 93 -26 45 -149 211 -216 291 -79
93 -305 316 -387 381 -78 61 -271 199 -279 199 -3 0 -30 16 -60 35 -79 51
-246 134 -356 179 -186 75 -216 86 -275 102 -33 8 -76 20 -95 25 -51 15 -194
44 -275 57 -38 6 -100 16 -136 21 -37 6 -180 11 -318 11 -292 0 -283 -4 -233
94 109 212 314 498 500 698 167 179 436 410 587 504 17 10 32 21 35 24 31 34
490 280 522 280 8 0 23 6 34 14 11 8 55 26 98 40 43 15 87 31 97 36 9 6 44 17
76 26 32 9 72 20 88 24 103 30 146 41 195 51 30 5 75 14 100 19 91 20 259 41
385 50 165 11 504 3 654 -15z m-2859 -2156 c52 -6 105 -15 118 -20 13 -5 37
-9 55 -9 57 0 172 -28 352 -85 60 -19 163 -59 220 -85 92 -41 224 -110 285
-147 25 -16 60 -37 78 -48 46 -28 205 -148 277 -208 129 -109 257 -248 400
-433 35 -45 105 -152 105 -160 0 -3 11 -20 24 -37 13 -18 33 -50 44 -72 11
-22 35 -70 54 -106 85 -164 197 -486 198 -566 0 -17 5 -35 10 -38 6 -3 10 -19
10 -34 0 -15 4 -41 10 -57 11 -34 40 -339 40 -420 0 -51 4 -61 46 -114 59 -75
82 -90 140 -90 57 0 94 21 128 73 25 39 26 48 26 172 0 128 21 336 39 385 5
14 12 48 15 75 8 73 16 117 26 140 4 11 16 47 26 80 35 116 108 301 162 409
51 103 180 316 209 344 7 8 18 23 25 35 45 87 295 343 475 488 76 62 246 179
259 179 3 0 18 9 32 19 78 55 361 181 492 219 19 6 71 22 115 35 75 24 145 39
240 52 22 3 65 10 95 16 30 6 154 13 275 16 218 5 314 -1 445 -31 l55 -13 19
-59 c10 -32 29 -88 41 -124 13 -36 28 -92 35 -125 7 -33 16 -71 21 -85 44
-127 88 -506 88 -760 0 -260 -50 -679 -90 -752 -5 -10 -9 -31 -9 -47 0 -17
-16 -78 -35 -138 -19 -59 -39 -124 -46 -143 -49 -155 -140 -358 -242 -545 -47
-87 -223 -358 -249 -386 -7 -8 -26 -32 -42 -54 -114 -155 -360 -403 -543 -549
-112 -90 -305 -225 -383 -268 -25 -14 -72 -41 -105 -59 -134 -76 -402 -199
-433 -199 -10 0 -22 -4 -27 -9 -25 -23 -395 -131 -450 -131 -13 0 -26 -4 -29
-9 -3 -4 -27 -11 -53 -15 -339 -46 -565 -60 -794 -47 -214 13 -413 38 -544 69
-22 6 -65 15 -95 21 -30 6 -80 20 -110 30 -30 10 -89 29 -130 41 -41 12 -86
28 -100 35 -14 7 -43 18 -65 25 -79 25 -384 171 -450 216 -20 13 -39 24 -43
24 -11 0 -215 136 -302 201 -261 195 -536 474 -718 728 -55 77 -144 213 -180
276 -38 64 -150 287 -175 345 -8 19 -24 55 -35 80 -10 25 -23 56 -26 70 -7 24
-13 39 -36 93 -5 12 -16 49 -25 82 -9 33 -20 69 -24 80 -15 37 -29 90 -41 150
-6 33 -16 78 -22 100 -29 105 -43 218 -61 498 -11 165 -11 230 0 385 15 212
29 346 43 412 39 189 101 418 129 485 8 18 20 53 35 97 5 17 26 18 303 13 164
-3 341 -10 393 -16z"/>
</g>
</svg>
